<!-- Generated by IcoMoon.io -->
<svg version="1.1" xmlns="http://www.w3.org/2000/svg" width="964" height="1024" viewBox="0 0 964 1024">
<title></title>
<g id="icomoon-ignore">
</g>
<path d="M481.882 40.235c-265.708 0-481.882 216.174-481.882 481.882 0 265.706 216.174 481.884 481.882 481.884 265.71 0 481.882-216.178 481.882-481.884 0-265.708-216.172-481.882-481.882-481.882zM481.882 112.518c226.641 0 409.6 182.956 409.6 409.6s-182.959 409.602-409.6 409.602c-226.644 0-409.6-182.959-409.6-409.602s182.956-409.6 409.6-409.6zM661.883 377.224c-9.385 0.273-18.299 4.189-24.847 10.918l-215.389 215.386-94.918-94.916c-3.33-3.468-7.319-6.238-11.733-8.145s-9.164-2.916-13.972-2.965c-4.808-0.049-9.577 0.863-14.029 2.68s-8.496 4.505-11.896 7.905c-3.4 3.4-6.088 7.444-7.905 11.896s-2.729 9.221-2.679 14.029c0.049 4.809 1.057 9.559 2.964 13.972s4.677 8.403 8.145 11.733l120.471 120.471c6.778 6.776 15.97 10.583 25.553 10.583s18.775-3.807 25.553-10.583l240.94-240.942c5.216-5.078 8.776-11.612 10.216-18.746s0.687-14.537-2.15-21.239c-2.837-6.702-7.632-12.392-13.752-16.324-6.126-3.932-13.294-5.924-20.57-5.715z"></path>
</svg>
