<svg width="24" height="24" viewBox="0 0 24 24" fill="none" xmlns="http://www.w3.org/2000/svg">
    <path d="M18.7038 16.8414C20.7148 16.8414 22.8003 13.0858 22.8003 9.0207C22.8003 4.95552 20.7148 1.20001 18.7038 1.20001M18.7038 16.8414C16.6927 16.8414 14.6072 13.0858 14.6072 9.0207C14.6072 4.95552 16.6927 1.20001 18.7038 1.20001M18.7038 16.8414C18.7038 16.8414 6.04157 14.2345 4.55192 13.8621C3.06226 13.4897 1.2002 11.5372 1.2002 9.0207C1.2002 6.50417 3.06226 4.55174 4.55192 4.17932C6.04157 3.80691 18.7038 1.20001 18.7038 1.20001M4.17988 14.2345V19.8207C4.17988 21.4662 5.51376 22.8 7.15919 22.8H7.90402C9.54949 22.8 10.8833 21.4662 10.8833 19.8207V15.7241" stroke-width="1.5"/>
</svg>
