<svg width="21" height="20" viewBox="0 0 21 20" fill="none" xmlns="http://www.w3.org/2000/svg">
    <path d="M17.8689 14.2875C17.5916 14.928 17.2634 15.5176 16.8832 16.0596C16.3649 16.7986 15.9405 17.3101 15.6135 17.5942C15.1065 18.0604 14.5633 18.2992 13.9816 18.3128C13.5641 18.3128 13.0605 18.1939 12.4743 17.9529C11.8862 17.713 11.3457 17.5942 10.8515 17.5942C10.3332 17.5942 9.77733 17.713 9.18276 17.9529C8.58728 18.1939 8.10757 18.3196 7.74081 18.332C7.18302 18.3558 6.62704 18.1102 6.07207 17.5942C5.71787 17.2852 5.27483 16.7556 4.74408 16.0053C4.17464 15.2041 3.70647 14.275 3.3397 13.2158C2.94691 12.0717 2.75 10.9638 2.75 9.89123C2.75 8.6626 3.01549 7.60292 3.54725 6.71491C3.96517 6.00163 4.52115 5.43897 5.217 5.02592C5.91285 4.61286 6.66472 4.40238 7.47442 4.38891C7.91746 4.38891 8.49845 4.52595 9.22044 4.79529C9.9404 5.06552 10.4027 5.20257 10.6054 5.20257C10.7569 5.20257 11.2704 5.04233 12.141 4.72286C12.9643 4.42659 13.6591 4.30392 14.2283 4.35224C15.7708 4.47673 16.9296 5.08476 17.7002 6.1802C16.3208 7.01604 15.6384 8.18674 15.652 9.68855C15.6644 10.8583 16.0888 11.8318 16.9228 12.6047C17.3008 12.9634 17.7229 13.2407 18.1925 13.4376C18.0907 13.733 17.9832 14.0159 17.8689 14.2875ZM14.3313 0.367015C14.3313 1.28389 13.9963 2.13998 13.3287 2.93236C12.5229 3.87435 11.5484 4.41867 10.4915 4.33278C10.478 4.22278 10.4702 4.10701 10.4702 3.98536C10.4702 3.10516 10.8534 2.16317 11.5339 1.39297C11.8736 1.003 12.3057 0.678752 12.8296 0.420089C13.3524 0.165286 13.847 0.0243746 14.3121 0.000244141C14.3257 0.122816 14.3313 0.245396 14.3313 0.367003V0.367015Z" fill="black"/>
</svg>
