<svg width="41" height="40" viewBox="0 0 41 40" fill="none" xmlns="http://www.w3.org/2000/svg">
    <path d="M20.4998 3.87912C20.4998 3.87912 16.6308 1.2998 11.4722 1.2998C6.3136 1.2998 1.7998 3.87912 1.7998 3.87912V38.6998C1.7998 38.6998 6.3136 36.1205 11.4722 36.1205C16.6308 36.1205 20.4998 38.6998 20.4998 38.6998M20.4998 3.87912C20.4998 3.87912 24.3688 1.2998 29.5274 1.2998C30.1851 1.2998 30.8325 1.34107 31.4619 1.41587M20.4998 3.87912V38.6998M20.4998 38.6998C20.4998 38.6998 24.3688 36.1205 29.5274 36.1205C34.686 36.1205 39.1998 38.6998 39.1998 38.6998V3.87912C39.1998 3.87912 35.7642 1.91626 31.4619 1.41587M31.4619 1.41587V12.9067" stroke-width="2" stroke-linecap="round" stroke-linejoin="round"/>
</svg>
