<svg width="20" height="20" viewBox="0 0 20 20" fill="none" xmlns="http://www.w3.org/2000/svg">
    <path d="M3.84445 16.7412V18.4998M16.1545 16.7412V18.4998M17.3276 16.1549H2.6724C2.02491 16.1549 1.5 15.6301 1.5 14.9825V10.8792C1.5 9.58413 2.5498 8.53436 3.8448 8.53436H16.1552C17.4502 8.53436 18.5 9.58413 18.5 10.8792V14.9825C18.5 15.6301 17.9751 16.1549 17.3276 16.1549ZM5.89621 12.3447C5.89621 12.6684 5.63376 12.9309 5.31001 12.9309C4.98627 12.9309 4.72382 12.6684 4.72382 12.3447C4.72382 12.021 4.98627 11.7585 5.31001 11.7585C5.63376 11.7585 5.89621 12.021 5.89621 12.3447ZM15.2756 12.3447C15.2756 12.6684 15.0131 12.9309 14.6894 12.9309C14.3657 12.9309 14.1032 12.6684 14.1032 12.3447C14.1032 12.021 14.3657 11.7585 14.6894 11.7585C15.0131 11.7585 15.2756 12.021 15.2756 12.3447ZM17.3272 8.53438H2.67197L3.51782 3.45931C3.70626 2.32869 4.68447 1.5 5.8307 1.5H14.1685C15.3148 1.5 16.2929 2.32869 16.4814 3.45931L17.3272 8.53438Z" stroke-width="1.2" stroke-linecap="round" stroke-linejoin="round"/>
</svg>
