<svg width="20" height="20" viewBox="0 0 20 20" fill="none" xmlns="http://www.w3.org/2000/svg">
    <path d="M13.9619 3.77397C13.0289 2.58674 11.749 1.71998 10.3002 1.29437C8.85146 0.868749 7.30606 0.905461 5.87916 1.39939C4.45226 1.89332 3.2149 2.81987 2.33931 4.05006C1.46373 5.28024 0.993533 6.75284 0.994173 8.26281C0.989879 9.69813 1.41442 11.102 2.21336 12.2945L0.994173 15.5363L3.93131 15.0099M13.1168 7.22368C14.6784 7.22368 16.1761 7.84404 17.2803 8.94828C18.3845 10.0525 19.0049 11.5502 19.0049 13.1118C19.0086 14.2709 18.666 15.4046 18.0212 16.3676L19.0049 18.9999L15.6937 18.4042C14.8973 18.7925 14.0237 18.9962 13.1377 18.9999C12.2518 19.0037 11.3764 18.8074 10.5768 18.4258C9.77724 18.0443 9.07409 17.487 8.51975 16.796C7.9654 16.1049 7.57415 15.2976 7.37518 14.4342C7.1762 13.5709 7.17459 12.6738 7.37051 11.8098C7.56642 10.9458 7.95479 10.1371 8.50667 9.44399C9.05855 8.75091 9.75972 8.19131 10.5579 7.80688C11.3562 7.42245 12.2308 7.22309 13.1168 7.22368Z" stroke-width="1.5" stroke-linecap="round" stroke-linejoin="round"/>
</svg>
