<svg width="18" height="17" viewBox="0 0 18 17" fill="none" xmlns="http://www.w3.org/2000/svg">
    <path d="M16.5 14.5184V8.72101C16.5 8.31767 16.4167 7.91856 16.2551 7.54814C16.0935 7.17772 15.8571 6.84379 15.5602 6.56679L10.0305 1.40498C9.752 1.14491 9.38327 1 9 1C8.61673 1 8.248 1.14491 7.9695 1.40498L2.43975 6.56679C2.14292 6.84379 1.90646 7.17772 1.74487 7.54814C1.58328 7.91856 1.49996 8.31767 1.5 8.72101V14.5184C1.5 14.9114 1.65804 15.2882 1.93934 15.5661C2.22064 15.8439 2.60218 16 3 16H15C15.3978 16 15.7794 15.8439 16.0607 15.5661C16.342 15.2882 16.5 14.9114 16.5 14.5184Z" stroke-width="1.5" stroke-linecap="round" stroke-linejoin="round"/>
</svg>
