<svg width="11" height="12" viewBox="0 0 11 12" fill="none" xmlns="http://www.w3.org/2000/svg">
    <path d="M8.61662 7.5571C8.92483 7.5571 9.22612 7.64849 9.48238 7.81973C9.73865 7.99096 9.93838 8.23434 10.0563 8.51908C10.1743 8.80383 10.2051 9.11716 10.145 9.41945C10.0849 9.72174 9.93646 9.9994 9.71853 10.2173C9.50059 10.4353 9.22292 10.5837 8.92063 10.6438C8.61835 10.704 8.30502 10.6731 8.02027 10.5551C7.73552 10.4372 7.49214 10.2375 7.32091 9.9812C7.14968 9.72493 7.05829 9.42364 7.05829 9.11543V2.88335C7.05829 2.57514 7.14968 2.27385 7.32091 2.01758C7.49214 1.76132 7.73552 1.56158 8.02027 1.44363C8.30502 1.32569 8.61835 1.29483 8.92063 1.35496C9.22292 1.41508 9.50059 1.5635 9.71853 1.78144C9.93646 1.99937 10.0849 2.27704 10.145 2.57933C10.2051 2.88162 10.1743 3.19495 10.0563 3.47969C9.93838 3.76444 9.73865 4.00782 9.48238 4.17905C9.22612 4.35028 8.92483 4.44168 8.61662 4.44168H2.38329C2.07508 4.44168 1.77379 4.35028 1.51752 4.17905C1.26125 4.00782 1.06152 3.76444 0.943573 3.47969C0.825626 3.19495 0.794766 2.88162 0.854895 2.57933C0.915023 2.27704 1.06344 1.99937 1.28138 1.78144C1.49931 1.5635 1.77698 1.41508 2.07927 1.35496C2.38156 1.29483 2.69489 1.32569 2.97963 1.44363C3.26438 1.56158 3.50776 1.76132 3.67899 2.01758C3.85022 2.27385 3.94162 2.57514 3.94162 2.88335V9.11668C3.94162 9.42489 3.85022 9.72618 3.67899 9.98244C3.50776 10.2387 3.26438 10.4384 2.97963 10.5564C2.69489 10.6743 2.38156 10.7052 2.07927 10.6451C1.77698 10.5849 1.49931 10.4365 1.28138 10.2186C1.06344 10.0007 0.915023 9.72298 0.854895 9.42069C0.794766 9.11841 0.825626 8.80508 0.943573 8.52033C1.06152 8.23558 1.26125 7.9922 1.51752 7.82097C1.77379 7.64974 2.07508 7.55835 2.38329 7.55835L8.61662 7.5571Z" stroke-width="1.2" stroke-linecap="round" stroke-linejoin="round"/>
</svg>
