<svg width="18" height="20" viewBox="0 0 18 20" fill="none" xmlns="http://www.w3.org/2000/svg">
    <path d="M1.6719 12.0517L0.750381 17.1177C0.719637 17.2867 0.726395 17.4604 0.770178 17.6265C0.81396 17.7925 0.893697 17.947 1.00375 18.0788C1.1138 18.2107 1.25148 18.3168 1.40705 18.3895C1.56262 18.4623 1.73228 18.5 1.90404 18.5H16.0949C16.2667 18.5 16.4363 18.4623 16.5919 18.3895C16.7475 18.3168 16.8852 18.2107 16.9952 18.0788C17.1053 17.947 17.185 17.7925 17.2288 17.6265C17.2726 17.4604 17.2793 17.2867 17.2486 17.1177L16.3271 12.0517M9.58597 6.4828C9.58597 6.63827 9.52421 6.78738 9.41428 6.89731C9.30434 7.00725 9.15524 7.06901 8.99977 7.06901C8.84429 7.06901 8.69519 7.00725 8.58525 6.89731C8.47532 6.78738 8.41356 6.63827 8.41356 6.4828C8.41356 6.32733 8.47532 6.17822 8.58525 6.06829C8.69519 5.95835 8.84429 5.89659 8.99977 5.89659C9.15524 5.89659 9.30434 5.95835 9.41428 6.06829C9.52421 6.17822 9.58597 6.32733 9.58597 6.4828ZM13.9822 6.42414C13.9822 10 8.99948 13.8103 8.99948 13.8103C8.99948 13.8103 4.01673 10 4.01673 6.42414C4.01673 3.70414 6.24783 1.5 8.99948 1.5C11.7511 1.5 13.9822 3.70414 13.9822 6.42414Z" stroke-width="1.2" stroke-linecap="round" stroke-linejoin="round"/>
</svg>
