<svg width="18" height="20" viewBox="0 0 18 20" fill="none" xmlns="http://www.w3.org/2000/svg">
    <path d="M1.67226 12.0517L0.750747 17.1177C0.720003 17.2867 0.726761 17.4604 0.770544 17.6265C0.814326 17.7925 0.894063 17.947 1.00412 18.0788C1.11417 18.2107 1.25185 18.3168 1.40742 18.3895C1.56299 18.4623 1.73265 18.5 1.9044 18.5H16.0953C16.2671 18.5 16.4367 18.4623 16.5923 18.3895C16.7479 18.3168 16.8855 18.2107 16.9956 18.0788C17.1056 17.947 17.1854 17.7925 17.2292 17.6265C17.2729 17.4604 17.2797 17.2867 17.249 17.1177L16.3274 12.0517M9.58634 6.4828C9.58634 6.63827 9.52458 6.78738 9.41464 6.89731C9.30471 7.00725 9.1556 7.06901 9.00013 7.06901C8.84466 7.06901 8.69556 7.00725 8.58562 6.89731C8.47569 6.78738 8.41393 6.63827 8.41393 6.4828C8.41393 6.32733 8.47569 6.17822 8.58562 6.06829C8.69556 5.95835 8.84466 5.89659 9.00013 5.89659C9.1556 5.89659 9.30471 5.95835 9.41464 6.06829C9.52458 6.17822 9.58634 6.32733 9.58634 6.4828ZM13.9826 6.42414C13.9826 10 8.99985 13.8103 8.99985 13.8103C8.99985 13.8103 4.01709 10 4.01709 6.42414C4.01709 3.70414 6.2482 1.5 8.99985 1.5C11.7515 1.5 13.9826 3.70414 13.9826 6.42414Z" stroke-width="1.2" stroke-linecap="round" stroke-linejoin="round"/>
</svg>
