<svg width="24" height="25" viewBox="0 0 24 25" fill="none" xmlns="http://www.w3.org/2000/svg">
    <path d="M7.92163 7.87411C7.72651 8.23949 7.86453 8.69386 8.2299 8.88898C8.59528 9.0841 9.04965 8.94608 9.24478 8.58071L7.92163 7.87411ZM13.4341 13.1731L13.7744 13.8415L13.7745 13.8414L13.4341 13.1731ZM11.0378 15.2756C11.0378 15.6898 11.3736 16.0256 11.7878 16.0256C12.202 16.0256 12.5378 15.6898 12.5378 15.2756H11.0378ZM12.5378 18.4793C12.5378 18.0651 12.202 17.7293 11.7878 17.7293C11.3736 17.7293 11.0378 18.0651 11.0378 18.4793H12.5378ZM11.0378 18.6929C11.0378 19.1071 11.3736 19.4429 11.7878 19.4429C12.202 19.4429 12.5378 19.1071 12.5378 18.6929H11.0378ZM9.24478 8.58071C9.45784 8.18173 9.76185 7.83853 10.1322 7.57888L9.27112 6.35066C8.70793 6.7455 8.24563 7.2674 7.92163 7.87411L9.24478 8.58071ZM10.1322 7.57888C10.5026 7.31924 10.9288 7.15044 11.3765 7.08616L11.1634 5.60138C10.4825 5.69914 9.8343 5.95582 9.27112 6.35066L10.1322 7.57888ZM11.3765 7.08616C11.8243 7.02187 12.2808 7.06391 12.7093 7.20886L13.19 5.78798C12.5385 5.56755 11.8442 5.50363 11.1634 5.60138L11.3765 7.08616ZM12.7093 7.20886C13.1377 7.35381 13.526 7.59761 13.8427 7.92052L14.9136 6.87017C14.432 6.37914 13.8415 6.0084 13.19 5.78798L12.7093 7.20886ZM13.8427 7.92052C14.1594 8.24342 14.3957 8.63636 14.5323 9.06753L15.9622 8.61441C15.7544 7.95874 15.3952 7.36121 14.9136 6.87017L13.8427 7.92052ZM14.5323 9.06753C14.6689 9.49871 14.7021 9.95599 14.6292 10.4024L16.1095 10.6443C16.2205 9.96546 16.17 9.27008 15.9622 8.61441L14.5323 9.06753ZM14.6292 10.4024C14.5562 10.8488 14.3792 11.2717 14.1125 11.6369L15.3238 12.5216C15.7294 11.9662 15.9986 11.3231 16.1095 10.6443L14.6292 10.4024ZM14.1125 11.6369C13.8457 12.0022 13.4967 12.2995 13.0936 12.5048L13.7745 13.8414C14.3874 13.5292 14.9181 13.0771 15.3238 12.5216L14.1125 11.6369ZM13.0938 12.5047C12.1946 12.9626 11.0378 13.8841 11.0378 15.2756H12.5378C12.5378 14.7791 12.9922 14.2397 13.7744 13.8415L13.0938 12.5047ZM11.0378 18.4793V18.6929H12.5378V18.4793H11.0378ZM22.3504 12.4999C22.3504 18.2161 17.7165 22.8499 12.0004 22.8499V24.3499C18.545 24.3499 23.8504 19.0445 23.8504 12.4999H22.3504ZM12.0004 22.8499C6.28424 22.8499 1.65039 18.2161 1.65039 12.4999H0.150391C0.150391 19.0445 5.45582 24.3499 12.0004 24.3499V22.8499ZM1.65039 12.4999C1.65039 6.78376 6.28424 2.1499 12.0004 2.1499V0.649902C5.45582 0.649902 0.150391 5.95533 0.150391 12.4999H1.65039ZM12.0004 2.1499C17.7165 2.1499 22.3504 6.78376 22.3504 12.4999H23.8504C23.8504 5.95533 18.545 0.649902 12.0004 0.649902V2.1499Z" />
</svg>
