<svg width="12" height="12" viewBox="0 0 12 12" fill="none" xmlns="http://www.w3.org/2000/svg">
    <path d="M11.1278 0.873319C10.8885 0.634103 10.5401 0.551351 10.2203 0.654269L1.23367 3.54294C0.892232 3.65281 0.655797 3.9421 0.616855 4.29884C0.577913 4.65488 0.746894 4.98867 1.05634 5.16878L4.23847 7.02479L6.98737 4.27519C7.19112 4.07144 7.52144 4.07144 7.72519 4.27519C7.92894 4.47894 7.92894 4.80926 7.72519 5.01301L4.97559 7.7626L6.8316 10.9447C6.99502 11.2243 7.28361 11.3891 7.60141 11.3891C7.63479 11.3891 7.66886 11.387 7.70293 11.3835C8.05898 11.3446 8.34896 11.1081 8.45813 10.7674L11.3475 1.78151C11.4504 1.45954 11.3663 1.11184 11.1278 0.873319Z" fill="white" />
</svg>
