<svg width="16" height="18" viewBox="0 0 16 18" fill="none" xmlns="http://www.w3.org/2000/svg">
    <path d="M0.999023 4.88825H15.001M5.04755 4.88168V4.50445C5.04755 3.73072 5.35491 2.98868 5.90202 2.44157C6.44913 1.89446 7.19117 1.5871 7.9649 1.5871C8.73864 1.5871 9.48068 1.89446 10.0278 2.44157C10.5749 2.98868 10.8823 3.73072 10.8823 4.50445V4.88168M11.7107 16.4126H4.2979C3.86101 16.4126 3.44202 16.2391 3.13309 15.9301C2.82416 15.6212 2.65061 15.2022 2.65061 14.7653V4.88155H13.358V14.7653C13.358 15.2022 13.1845 15.6212 12.8755 15.9301C12.5666 16.2391 12.1476 16.4126 11.7107 16.4126Z" stroke-width="1.5" stroke-linecap="round" stroke-linejoin="round"/>
</svg>
