<svg width="3" height="15" viewBox="0 0 3 15" fill="none" xmlns="http://www.w3.org/2000/svg">
    <path d="M1.5005 2.56105C1.31337 2.56105 1.1339 2.48672 1.00158 2.3544C0.869259 2.22208 0.794922 2.04261 0.794922 1.85548C0.794922 1.66835 0.869259 1.48888 1.00158 1.35656C1.1339 1.22424 1.31337 1.1499 1.5005 1.1499" stroke-width="1.2" stroke-linecap="round" stroke-linejoin="round"/>
    <path d="M1.50098 2.56105C1.68811 2.56105 1.86757 2.48672 1.99989 2.3544C2.13222 2.22208 2.20655 2.04261 2.20655 1.85548C2.20655 1.66835 2.13222 1.48888 1.99989 1.35656C1.86757 1.22424 1.68811 1.1499 1.50098 1.1499" stroke-width="1.2" stroke-linecap="round" stroke-linejoin="round"/>
    <path d="M1.5005 13.8501C1.31337 13.8501 1.1339 13.7758 1.00158 13.6435C0.869259 13.5111 0.794922 13.3317 0.794922 13.1445C0.794922 12.9574 0.869259 12.7779 1.00158 12.6456C1.1339 12.5133 1.31337 12.439 1.5005 12.439" stroke-width="1.2" stroke-linecap="round" stroke-linejoin="round"/>
    <path d="M1.50098 13.8501C1.68811 13.8501 1.86757 13.7758 1.99989 13.6435C2.13222 13.5111 2.20655 13.3317 2.20655 13.1445C2.20655 12.9574 2.13222 12.7779 1.99989 12.6456C1.86757 12.5133 1.68811 12.439 1.50098 12.439" stroke-width="1.2" stroke-linecap="round" stroke-linejoin="round"/>
    <path d="M1.5005 8.20559C1.31337 8.20559 1.1339 8.13125 1.00158 7.99893C0.869259 7.86661 0.794922 7.68714 0.794922 7.50001C0.794922 7.31288 0.869259 7.13341 1.00158 7.00109C1.1339 6.86877 1.31337 6.79443 1.5005 6.79443" stroke-width="1.2" stroke-linecap="round" stroke-linejoin="round"/>
    <path d="M1.50098 8.20559C1.68811 8.20559 1.86757 8.13125 1.99989 7.99893C2.13222 7.86661 2.20655 7.68714 2.20655 7.50001C2.20655 7.31288 2.13222 7.13341 1.99989 7.00109C1.86757 6.86877 1.68811 6.79443 1.50098 6.79443" stroke-width="1.2" stroke-linecap="round" stroke-linejoin="round"/>
</svg>
