<!-- Generated by IcoMoon.io -->
<svg version="1.1" xmlns="http://www.w3.org/2000/svg" width="1024" height="1024" viewBox="0 0 1024 1024">
<title></title>
<g id="icomoon-ignore">
</g>
<path d="M512 938.667q-87.467 0-165.333-33.6t-136-91.733-91.733-136-33.6-165.333q0-88.533 33.6-166.4t91.733-135.467 136-91.2 165.333-33.6q88.533 0 166.4 33.6t135.467 91.2 91.2 135.467 33.6 166.4q0 87.467-33.6 165.333t-91.2 136-135.467 91.733-166.4 33.6zM512 874.667q151.467 0 257.067-106.133t105.6-256.533q0-151.467-105.6-257.067t-257.067-105.6q-150.4 0-256.533 105.6t-106.133 257.067q0 150.4 106.133 256.533t256.533 106.133z"></path>
</svg>
